# xmcd
# 
# Track frame offsets:
#     150
#     15164
#     29163
#     47135
#     63599
#     78190
#     97776
#     114029
#     129859
#     144702
#     159802
#     176941
#     188367
#     205017
#     221738
#     234737
#     250090
#     266351
#     279525
# 
# Disc length: 3903
# 
# Revision: 14
# Processed by: cddbd v1.5.2PL0 Copyright (c) Steve Scherf et al.
# Submitted via: fre:ac v1.0.17
# 
DISCID=f70f3d13
DTITLE=Rag'n'Bone Man - Human (Deluxe)
DYEAR=2017
DGENRE=R&B
TTITLE0=Human
TTITLE1=Innocent Man
TTITLE2=Skin
TTITLE3=Bitter End
TTITLE4=Be the Man
TTITLE5=Love You Any Less
TTITLE6=Odetta
TTITLE7=Grace
TTITLE8=Ego
TTITLE9=Arrow
TTITLE10=As You Are
TTITLE11=Die Easy
TTITLE12=The Fire
TTITLE13=Fade to Nothing
TTITLE14=Life in Her Yet
TTITLE15=Your Way or the Rope
TTITLE16=Lay My Body Down
TTITLE17=Wolves
TTITLE18=Healed
EXTD=
EXTT0=
EXTT1=
EXTT2=
EXTT3=
EXTT4=
EXTT5=
EXTT6=
EXTT7=
EXTT8=
EXTT9=
EXTT10=
EXTT11=
EXTT12=
EXTT13=
EXTT14=
EXTT15=
EXTT16=
EXTT17=
EXTT18=
PLAYORDER=
